# xmcd CD database file
#
# Track frame offsets:
#	150
#	31836
#	58248
#	80193
#	104436
#	126250
#	149381
#	182814
#	214298
#	249822
#	266049
#
# Disc length: 3851 seconds
#
# Revision: 0
# Processed by: cddbd v1.5.1PL0 Copyright (c) Steve Scherf et al.
# Submitted via: CDex 1.51
#
DISCID=a70f090b
DTITLE=Ken Karsh - Ventana
DYEAR=2004
DGENRE=Jazz
TTITLE0=Just Squeeze Me
TTITLE1=The Ducks of Boston
TTITLE2=Seven Steps To Heaven
TTITLE3=Old Man River
TTITLE4=In Retrospect
TTITLE5=Blackbird
TTITLE6=Andie's Song
TTITLE7=Ventana
TTITLE8=Chelsea Bridge
TTITLE9=My Shining Hour
TTITLE10=Dancing Mist
EXTD=YEAR: 2004
EXTT0=
EXTT1=
EXTT2=
EXTT3=
EXTT4=
EXTT5=
EXTT6=
EXTT7=
EXTT8=
EXTT9=
EXTT10=
PLAYORDER=
